<svg id="bold" enable-background="new 0 0 24 24" height="512" viewBox="0 0 24 24" width="512" xmlns="http://www.w3.org/2000/svg"><g><path fill="#F1FAEE" d="m2.75 5c-1.517 0-2.75 1.233-2.75 2.75v10.5c0 1.517 1.233 2.75 2.75 2.75h18.5c1.517 0 2.75-1.233 2.75-2.75v-10.5c0-1.517-1.233-2.75-2.75-2.75h-.537l-.74-1.48c-.469-.937-1.411-1.52-2.459-1.52h-4.278c-1.048 0-1.99.583-2.459 1.52l-.74 1.48zm13.25 3c2.757 0 5 2.243 5 5s-2.243 5-5 5-5-2.243-5-5 2.243-5 5-5zm-8 1.25c0 .414-.336.75-.75.75h-3.5c-.414 0-.75-.336-.75-.75s.336-.75.75-.75h3.5c.414 0 .75.336.75.75z"/></g><g><g><path fill="#F1FAEE" d="m5 7c-.552 0-1-.448-1-1v-2c0-.552.448-1 1-1s1 .448 1 1v2c0 .552-.448 1-1 1z"/></g></g></svg>