<?xml version="1.0" encoding="iso-8859-1"?>
<!-- Generator: Adobe Illustrator 19.0.0, SVG Export Plug-In . SVG Version: 6.00 Build 0)  -->
<svg version="1.1" id="Layer_1" xmlns="http://www.w3.org/2000/svg" xmlns:xlink="http://www.w3.org/1999/xlink" x="0px" y="0px"
	 viewBox="0 0 512.106 512.106" style="enable-background:new 0 0 512.106 512.106;" xml:space="preserve">
<g>
	<g>
		<g>
			<path fill="#F1FAEE" d="M149.847,262.614h0.448c3.776-0.149,7.189-2.304,8.96-5.653c11.456-21.525,31.381-36.779,54.656-41.813
				c3.691-0.811,6.677-3.499,7.872-7.104c1.173-3.584,0.363-7.552-2.133-10.389L55.02,10.774C43.735-2.432,21.698-3.392,9.282,8.811
				C-1.406,19.329-3.028,35.926,5.271,48.022l135.595,209.707C142.871,260.8,146.242,262.614,149.847,262.614z"/>
			<path fill="#F1FAEE" d="M438.444,139.35c-39.979-41.6-91.925-64-151.488-64.811c-26.005,0-61.056,11.797-80.299,67.989
				c-1.237,3.627-0.448,7.637,2.091,10.517l31.893,36.203c5.952,6.763,10.539,14.571,13.589,23.232
				c1.045,2.944,3.307,5.269,6.229,6.4c32,12.309,52.672,42.197,52.672,76.139c0,12.075,8.235,25.771,14.891,36.843
				c10.581,17.579,19.179,34.901,8.576,53.653c-5.077,8.981-15.957,19.712-38.891,19.712c-11.371,0-26.901-2.347-51.947-7.829
				c-48.171-10.581-91.008-53.355-95.509-95.36c-0.341-3.093-1.984-5.888-4.544-7.637c-5.589-3.84-10.475-8.32-14.549-13.291
				c-2.368-2.901-6.037-4.309-9.792-3.797c-3.691,0.533-6.848,2.987-8.299,6.443c-3.136,7.509-5.269,15.637-6.293,24.171
				c-2.88,23.637,17.451,85.525,61.803,135.595c39.595,44.715,88.277,68.352,140.779,68.352
				c125.717,0,199.573-65.984,202.667-181.056C513.858,262.955,484.972,187.777,438.444,139.35z M330.711,202.539
				c-23.531,0-42.667-19.136-42.667-42.667c0-23.531,19.136-42.667,42.667-42.667s42.667,19.136,42.667,42.667
				C373.378,183.403,354.242,202.539,330.711,202.539z M362.711,234.539c0-23.531,19.136-42.667,42.667-42.667
				c23.531,0,42.667,19.136,42.667,42.667c0,23.531-19.136,42.667-42.667,42.667C381.847,277.206,362.711,258.07,362.711,234.539z
				 M426.711,383.872c-23.531,0-42.667-19.136-42.667-42.667c0-23.531,19.136-42.667,42.667-42.667s42.667,19.136,42.667,42.667
				C469.378,364.737,450.242,383.872,426.711,383.872z"/>
			<path fill="#F1FAEE" d="M170.711,294.998c0,33.536,37.973,72.405,79.659,81.536c23.125,5.077,37.739,7.339,47.36,7.339
				c3.797,0,15.296,0,20.331-8.875c5.355-9.472-0.683-19.477-8.299-32.149c-8-13.291-17.941-29.803-17.941-47.851
				c0-33.344-27.157-60.459-60.544-60.459C197.89,234.539,170.711,261.654,170.711,294.998z"/>
		</g>
	</g>
</g>
<g>
</g>
<g>
</g>
<g>
</g>
<g>
</g>
<g>
</g>
<g>
</g>
<g>
</g>
<g>
</g>
<g>
</g>
<g>
</g>
<g>
</g>
<g>
</g>
<g>
</g>
<g>
</g>
<g>
</g>
</svg>
